PathFileType	4	(X/Y/Z)	 s07c0103.trc
DataRate	CameraRate	NumFrames	NumMarkers	Units	OrigDataRate	OrigDataStartFrame	OrigNumFrames
200	200	7	47	mm	200	501	2000
Frame#	Time	racr			lacr			c7			jug			rlel			rdr			llel			ldr			s2			lic			ric			lasi			rasi			rpsi			lpsi			rgt			lgt			rth1			rth2			rth3			rth4			rlfc			rmfc			rsh1			rsh2			rsh3			rsh4			rcal			rtoe			rmt5			lth1			lth2			lth4			lth3			llfc			lmfc			lsh1			lsh2			lsh3			lsh4			llmal			lcal			ltoe			lmt5			SBIKE			LBIKE			RBIKE			
		X1	Y1	Z1	X2	Y2	Z2	X3	Y3	Z3	X4	Y4	Z4	X5	Y5	Z5	X6	Y6	Z6	X7	Y7	Z7	X8	Y8	Z8	X9	Y9	Z9	X10	Y10	Z10	X11	Y11	Z11	X12	Y12	Z12	X13	Y13	Z13	X14	Y14	Z14	X15	Y15	Z15	X16	Y16	Z16	X17	Y17	Z17	X18	Y18	Z18	X19	Y19	Z19	X20	Y20	Z20	X21	Y21	Z21	X22	Y22	Z22	X23	Y23	Z23	X24	Y24	Z24	X25	Y25	Z25	X26	Y26	Z26	X27	Y27	Z27	X28	Y28	Z28	X29	Y29	Z29	X30	Y30	Z30	X31	Y31	Z31	X32	Y32	Z32	X33	Y33	Z33	X34	Y34	Z34	X35	Y35	Z35	X36	Y36	Z36	X37	Y37	Z37	X38	Y38	Z38	X39	Y39	Z39	X40	Y40	Z40	X41	Y41	Z41	X42	Y42	Z42	X43	Y43	Z43	X44	Y44	Z44	X45	Y45	Z45	X46	Y46	Z46	X47	Y47	Z47	
501	2.5050	522.009616	1350.396601	-124.077897	485.409566	1364.993733	-366.409079	469.452651	1397.818634	-242.308033	449.068032	1253.337492	-252.625490	500.386789	1060.617236	80.030926	713.955277	914.482152	-47.852107	497.697204	1063.312856	-535.263888	722.293635	914.820687	-405.446384	-134.242307	1199.245859	-207.510750	12.747050	1279.561605	-348.961471	55.272726	1214.027142	-67.489602	40.816949	1199.235458	-335.085576	64.053130	1168.017112	-90.324744	-100.424752	1231.039587	-152.868322	-100.601338	1259.659916	-255.080489	-5.827786	1088.521004	-39.197484	-37.347737	1126.739696	-399.558937	133.189156	1011.235509	-44.945752	213.720369	979.522155	-61.804175	270.707722	916.286143	-65.516457	230.831088	1008.838658	-77.439038	355.670685	817.449815	-106.472970	337.378046	806.286729	-212.571761	259.139906	715.606206	-79.102285	216.952639	638.541900	-90.167672	143.564284	591.511707	-82.292914	229.018549	627.378021	-128.150461	-19.215093	527.496785	-107.554565	117.354983	271.074070	-121.324960	49.061131	320.103648	-52.418334	49.101796	1028.810702	-411.312515	128.511478	989.213776	-410.547933	152.226683	1015.421784	-401.865399	177.796035	915.147740	-406.669578	296.589870	782.934486	-375.184579	285.564601	760.043020	-282.531189	265.880904	637.744359	-403.931100	271.228945	553.605006	-385.962251	235.104405	471.093147	-395.303667	272.788124	555.586818	-343.742669	203.112852	336.285861	-397.489074	142.641683	278.165838	-365.905280	425.586604	342.637718	-354.154099	357.960036	294.501491	-420.833156	-258.353806	967.384389	-231.882549	-75.637361	83.219363	-437.367664	-82.197916	79.340627	-39.972769	
502	2.5100	520.850190	1353.758797	-121.536568	486.506013	1368.216818	-365.658747	469.319669	1402.064383	-240.727934	447.491735	1257.809624	-251.299175	499.979593	1061.719943	79.514309	713.995285	914.689489	-47.985254	499.170460	1066.025944	-534.453499	722.537646	914.947328	-405.242192	-133.118518	1200.037550	-208.615985	13.305029	1280.101853	-350.376927	55.831099	1216.776365	-68.396897	41.770812	1199.674582	-336.386809	64.961635	1170.763094	-91.176997	-99.671145	1232.494107	-154.072183	-99.643472	1260.192561	-256.448756	-4.270682	1091.561191	-39.144933	-36.689260	1125.998565	-399.855074	135.442071	1016.139854	-45.449007	216.445230	985.608636	-62.059927	274.198438	923.268376	-65.450840	232.998387	1014.196111	-78.926569	360.653343	825.339128	-106.966735	341.696777	812.807065	-210.324281	264.234363	723.938790	-79.606794	221.780271	646.997569	-90.531363	148.238677	600.106776	-82.558785	234.143900	635.986213	-128.197998	-13.813447	538.195672	-106.453191	118.940268	279.576618	-121.296652	51.275795	329.411833	-52.354001	47.408453	1026.048370	-411.984617	125.666995	984.347385	-411.778584	150.155752	1009.855742	-403.529592	172.877791	908.927644	-407.774064	288.890709	775.116028	-377.093111	280.151573	751.492565	-285.752168	259.981130	629.741900	-405.303019	266.552549	545.508469	-387.212901	231.474536	462.618792	-396.180905	267.658995	548.004639	-344.893718	201.016308	327.389896	-397.957351	140.601145	269.439247	-366.174430	424.221805	333.899248	-355.938012	356.009838	284.769184	-420.885290	-258.306872	967.416111	-231.914204	-75.640082	83.233779	-437.372274	-82.211531	79.351861	-39.974252	
503	2.5150	519.456454	1357.502136	-119.095730	487.628207	1371.821347	-364.609349	468.992074	1406.825308	-239.006138	445.710423	1262.831616	-250.064642	499.714755	1062.901217	78.451532	714.079700	914.909073	-48.327270	500.964348	1069.231570	-533.470592	722.846367	915.062856	-405.101544	-131.901692	1200.916849	-209.746408	14.099443	1280.540335	-351.998536	56.363137	1219.796398	-69.227500	42.854382	1200.010729	-337.595669	65.907464	1173.807643	-92.081507	-98.801392	1233.908500	-155.438634	-98.630644	1260.774709	-257.984451	-2.420549	1094.779106	-39.108054	-35.952354	1125.196228	-400.120589	137.786312	1021.164763	-46.313545	219.308153	991.856218	-62.589908	277.872968	930.278527	-65.507447	235.588202	1020.646794	-79.243135	366.056879	834.045581	-106.449383	347.313534	821.159998	-212.218927	269.415316	732.222916	-80.158242	226.660057	655.384831	-90.898994	153.007024	608.956274	-82.773165	238.990746	644.487986	-128.530933	-9.368769	547.776123	-107.636866	121.169122	288.129951	-121.393824	54.070571	338.786529	-52.447728	45.632762	1023.157178	-412.223915	122.512883	979.241874	-412.943899	147.846564	1004.241252	-405.237645	167.531092	902.579912	-408.768022	280.950003	767.142086	-378.783990	272.749642	743.987558	-287.664711	253.748531	621.829435	-406.555403	261.386768	537.828734	-388.360958	227.399526	454.420098	-397.166273	262.307329	540.141938	-346.253253	198.430514	318.705282	-398.282450	138.052649	261.068973	-366.471954	421.581679	322.576759	-354.057640	353.569984	275.051301	-420.956380	-258.284857	967.440233	-231.956540	-75.647353	83.273970	-437.394215	-82.223482	79.397813	-39.951019	
504	2.5200	517.890751	1361.617340	-116.649720	488.777837	1375.778723	-363.129081	468.474376	1412.025838	-237.338334	443.863901	1268.297412	-248.993331	499.456521	1064.411333	77.163161	714.319832	915.171161	-48.772771	503.065741	1072.927480	-532.315152	723.215884	915.216056	-405.030609	-130.595886	1201.759687	-210.859015	15.142274	1280.833404	-353.759224	57.074516	1223.074046	-70.834076	44.098450	1200.397509	-338.923516	66.965380	1176.976216	-93.026320	-97.837210	1235.264375	-156.957062	-97.564219	1261.356897	-259.663712	-0.381731	1098.298296	-39.006637	-35.195385	1124.370859	-400.339451	140.463942	1026.610782	-47.160657	222.449606	998.332623	-63.112593	281.771985	937.390795	-66.239282	238.362248	1027.232643	-79.876165	371.380474	842.249778	-107.224494	352.855506	829.412662	-212.685547	274.674577	740.826193	-80.605952	231.798262	664.043112	-91.202684	158.000377	617.573351	-83.087939	244.082444	652.896499	-128.901036	-4.434577	557.536048	-107.934729	122.945519	296.121064	-122.676904	57.588199	348.119763	-52.248602	43.695222	1020.314537	-412.376766	119.072345	974.093164	-414.110163	145.258349	998.433292	-407.130411	161.916016	896.207746	-409.754344	273.065105	759.406776	-380.325243	264.960085	736.584700	-289.398492	247.055008	614.042201	-407.841451	255.735063	530.254813	-389.507993	222.811124	446.297618	-398.134634	256.577806	532.859952	-347.372367	195.610052	309.942396	-398.472223	134.878908	253.149755	-366.797154	418.837373	312.595836	-354.077253	350.475550	265.739625	-421.163669	-258.287301	967.459814	-232.049799	-75.647858	83.264975	-437.398430	-82.225844	79.383902	-39.989833	
505	2.5250	516.128018	1366.070403	-114.300689	489.903851	1379.992207	-361.289417	467.790127	1417.482858	-235.618622	442.084767	1273.999642	-247.949200	499.330307	1066.182026	75.591279	714.658999	915.382516	-49.388179	505.398869	1077.159884	-530.947387	723.676589	915.437116	-404.945484	-129.214046	1202.634604	-212.082447	16.338189	1281.100051	-355.562743	57.536852	1226.365416	-71.861740	45.478427	1200.518736	-340.052658	68.023362	1180.407633	-93.988668	-96.856800	1236.679094	-158.527856	-96.450463	1262.080360	-261.460927	1.993919	1101.918298	-39.071465	-34.257051	1123.469007	-400.586741	143.360592	1032.252695	-47.558992	225.841917	1005.045112	-63.886562	286.204170	944.761708	-67.040867	241.351267	1034.040912	-80.787902	376.807794	850.620102	-108.087914	358.433284	837.525494	-212.521624	280.023272	749.391618	-81.082988	237.160515	672.568177	-91.514316	163.340335	626.305648	-83.284896	250.893518	661.762723	-128.601713	0.795559	567.040803	-108.438534	126.418623	304.725485	-122.728551	61.523630	357.361095	-52.294001	41.555940	1017.511522	-412.641365	115.400462	969.185775	-415.301992	142.422152	992.790595	-409.083686	155.900014	889.985951	-411.124578	272.243590	749.324206	-376.816357	256.982039	730.190309	-290.520901	239.907459	606.320078	-409.117224	249.597963	522.659780	-390.719533	217.650281	438.436633	-399.015260	250.456056	525.431425	-348.621394	192.176671	301.786306	-398.753243	131.233721	245.478893	-366.949050	415.650232	302.830778	-354.134323	346.980244	256.375646	-421.159410	-258.342078	967.325644	-231.721647	-75.643621	83.276712	-437.396031	-82.222127	79.432563	-39.976058	
506	2.5300	514.302153	1370.833431	-111.944531	490.925894	1384.413833	-359.185890	466.955288	1423.148683	-233.935457	440.410706	1279.872243	-246.910731	499.272837	1068.169226	73.822461	715.027654	915.622017	-50.062456	507.977307	1081.736074	-529.405696	724.155127	915.560607	-404.871069	-127.806414	1203.539151	-213.423703	17.808679	1281.279289	-357.441230	57.960436	1229.606695	-72.855652	46.878089	1200.561011	-341.123304	69.066282	1183.846567	-95.070263	-95.910250	1238.182128	-160.031602	-95.252693	1262.607121	-263.321242	4.235054	1105.747928	-39.076990	-33.314211	1122.617701	-400.807017	146.769128	1038.142268	-48.050213	229.515590	1012.021035	-64.601514	290.696866	952.396079	-67.709011	244.550474	1041.094424	-81.899242	382.241942	859.323706	-108.402862	363.948182	846.105955	-212.468926	285.601875	758.201331	-81.418616	242.738426	681.361801	-91.776368	168.837603	635.163978	-83.394010	254.977141	670.158403	-129.411239	7.418556	576.875587	-107.690081	130.571223	313.208674	-122.752716	66.032589	366.205906	-52.338759	39.419888	1014.781130	-412.982892	111.729004	964.263085	-416.400846	139.520669	987.131685	-410.810690	149.896471	883.873955	-411.997492	259.134038	742.585090	-379.572920	248.196164	720.984203	-293.027313	232.365914	598.855194	-410.403047	243.102834	515.449899	-391.928611	211.963284	430.730356	-399.756445	244.068753	518.237512	-349.745208	188.131183	293.877414	-398.845023	127.113023	238.269558	-366.871345	411.933332	293.009209	-354.187581	342.921075	247.237305	-421.206230	-258.291218	967.386939	-231.961940	-75.640011	83.279351	-437.404562	-82.208364	79.426680	-39.998250	
507	2.5350	512.362635	1375.790209	-109.568643	491.787066	1389.014162	-356.944399	465.989283	1428.903469	-232.246104	438.796443	1285.802093	-245.830165	499.313412	1070.451232	72.015116	715.384207	915.980528	-50.911035	510.822506	1086.517400	-527.854288	724.700473	915.625627	-404.740918	-126.315500	1204.412695	-214.714162	19.285243	1281.436465	-359.350265	58.288405	1233.437663	-73.779608	48.581773	1200.708346	-342.421016	70.184317	1187.373649	-96.523811	-94.970194	1239.657266	-161.605330	-94.024642	1263.205838	-265.315128	6.815803	1109.655208	-39.229249	-32.187234	1121.771130	-400.985616	150.349842	1044.351390	-48.532921	233.182109	1019.289379	-65.374669	295.313587	960.469290	-68.495685	247.696265	1048.652225	-82.820060	387.731158	868.223949	-108.642800	369.651557	854.656155	-212.715740	291.237425	767.074525	-81.715435	248.604110	690.043765	-91.954483	174.857705	643.607097	-83.627967	260.856062	678.901011	-129.522014	13.083171	585.736829	-108.319255	135.169055	321.525802	-122.870893	71.102752	375.309822	-52.148158	37.358191	1012.280939	-413.423141	108.178851	959.847937	-417.697801	136.658263	981.770302	-412.437122	143.936137	878.170026	-412.798374	255.185448	734.501247	-379.791178	239.445891	714.869231	-293.962419	224.603406	591.574989	-411.620988	236.314232	508.115270	-393.168424	205.916308	423.445778	-400.558052	237.257273	510.709641	-350.520316	183.395607	286.506743	-398.920518	122.420758	231.493989	-366.721772	407.820181	283.533279	-354.381187	338.328853	238.374471	-421.286445	-258.213745	967.500508	-232.197842	-75.628886	83.304442	-437.429694	-82.187185	79.477456	-40.007662	
